<svg width="330" height="8" viewBox="0 0 330 8" fill="none" xmlns="http://www.w3.org/2000/svg">
<g style="mix-blend-mode:screen">
<path fill-rule="evenodd" clip-rule="evenodd" d="M229.324 0.152808C217.736 0.114598 207.987 0.0738918 202.955 0.0377589C193.015 -0.0336195 169.434 -0.00295691 150.55 0.106814C136.034 0.190889 112.244 0.401054 90.6459 0.617284C84.6065 0.602282 78.4892 0.583502 72.461 0.560981C18.6076 0.359826 11.6999 0.389903 8.97478 0.837411C6.15171 1.30127 6.14102 1.34074 8.83545 1.35496C9.57466 1.35886 10.3329 1.38693 10.9815 1.42988C9.77888 1.49375 9.08286 1.57004 8.55564 1.66202C8.43811 1.68254 8.32562 1.70225 8.21816 1.72118C4.06681 1.59482 3.46777 1.66606 4.13779 2.17557C4.28791 2.28971 4.27502 2.42114 4.12762 2.55567C3.72378 2.60133 3.61045 2.68251 3.69768 2.80935C3.29405 2.98498 2.68642 3.15046 1.9405 3.27296C-0.841259 3.72979 -0.763889 3.76877 3.03112 3.82265L3.2105 3.82516C2.8703 3.94067 2.44256 4.04702 1.94647 4.13357C-0.754873 4.60486 -0.670793 4.64342 3.13187 4.67725C5.38294 4.69724 7.7898 4.69897 8.48036 4.6811C9.05309 4.66625 11.0047 4.89055 13.1391 5.20765C11.5019 5.24806 12.055 5.3107 14.385 5.46258C14.6367 5.47899 14.8834 5.49653 15.1242 5.51502C16.2557 5.68176 17.4541 5.81786 18.7189 5.92329C20.03 6.14784 20.265 6.35202 18.6087 6.36215C13.7707 6.39176 19.7446 6.95216 31.0051 7.52504C43.2571 8.14836 43.9416 8.14883 103.67 7.57588C116.394 7.45382 129.478 7.31246 141.356 7.17154C148.028 7.2175 156.102 7.25639 164.357 7.28243C170.626 7.3348 176.983 7.38014 182.895 7.4131C217.757 7.60819 304.874 7.69955 293.267 7.52886C283.392 7.38363 288.532 7.08207 304.149 6.89043C312.2 6.79162 319.088 6.56778 319.456 6.39302C319.824 6.21824 322.268 6.08657 324.887 6.1004C328.433 6.11911 329.676 5.97246 329.753 5.52652C329.783 5.35643 329.578 5.22177 329.046 5.11062C329.722 5.01597 330 4.86975 330 4.65672C330 4.25351 328.721 4.056 324.891 3.91246C326.569 3.90405 326.945 3.87283 326.213 3.79216C326.744 3.71948 326.671 3.57509 326.254 3.32653C326.113 3.24197 326.057 3.14657 326.079 3.04652C326.67 3.02551 326.667 2.99261 326.13 2.93869C326.321 2.67607 326.993 2.39741 327.985 2.20678C330.52 1.71969 330.431 1.68166 326.722 1.6705C324.689 1.66441 322.53 1.67476 321.69 1.69377C321.118 1.58302 319.558 1.42762 317.208 1.24721C316.661 1.1713 316.098 1.08879 315.537 1.00208C312.364 0.511255 308.712 0.272924 304.587 0.287487C303.665 0.290744 302.472 0.292958 301.043 0.294211C292.534 -0.0566897 282.237 -0.026393 233.167 0.13937C231.889 0.143688 230.608 0.14817 229.324 0.152808ZM28.1037 2.12337C27.8998 2.1299 27.6978 2.13647 27.4979 2.14311C27.0057 2.12497 26.5164 2.106 26.032 2.08624C26.7266 2.09766 27.4184 2.11007 28.1037 2.12337ZM15.1555 1.2959C16.2555 1.2737 17.5409 1.25381 19.0505 1.23585C16.2697 1.20799 15.0739 1.22068 15.1555 1.2959Z" fill="#CCFF00"/>
</g>
</svg>
